<svg xmlns="http://www.w3.org/2000/svg" width="12.015" height="11.987"><path d="M10.629 11.987H1.386A1.386 1.386 0 0 1 0 10.604v-9.22A1.386 1.386 0 0 1 1.386.001h9.243a1.386 1.386 0 0 1 1.388 1.382v9.22a1.386 1.386 0 0 1-1.388 1.384zM1.386 5.07v5.073a.462.462 0 0 0 .463.461h8.319a.462.462 0 0 0 .462-.461V5.07H9.585a3.736 3.736 0 0 1 .121.924 3.7 3.7 0 0 1-7.393 0 3.736 3.736 0 0 1 .121-.924H1.387zm4.621-1.382a2.31 2.31 0 1 0 2.31 2.309 2.312 2.312 0 0 0-2.31-2.31zm2.774-2.3a.462.462 0 0 0-.462.461v1.382a.463.463 0 0 0 .462.463h1.387a.463.463 0 0 0 .462-.463V1.849a.462.462 0 0 0-.462-.461z" fill="#fff"/></svg>