<svg xmlns="http://www.w3.org/2000/svg" width="60" height="30"><g fill="transparent" stroke-linejoin="round"><path d="M58 29.5H2c-.827 0-1.5-.673-1.5-1.5v-5.26a1.5 1.5 0 0 1 1.13-1.447A6.497 6.497 0 0 0 6.5 15a6.498 6.498 0 0 0-4.87-6.294A1.498 1.498 0 0 1 .5 7.26V2C.5 1.173 1.173.5 2 .5h56c.827 0 1.5.673 1.5 1.5v5.26c0 .68-.465 1.274-1.13 1.446A6.498 6.498 0 0 0 53.5 15a6.497 6.497 0 0 0 4.87 6.294c.665.171 1.13.766 1.13 1.446V28c0 .827-.673 1.5-1.5 1.5z"/><path d="M2 1c-.551 0-1 .448-1 1v5.26c0 .451.31.847.755.962A6.997 6.997 0 0 1 7 15a6.997 6.997 0 0 1-5.245 6.778.998.998 0 0 0-.755.962V28c0 .551.449 1 1 1h56c.551 0 1-.449 1-1v-5.26a.999.999 0 0 0-.755-.962A6.997 6.997 0 0 1 53 15a6.997 6.997 0 0 1 5.245-6.778A.999.999 0 0 0 59 7.26V2c0-.552-.449-1-1-1H2m0-1h56a2 2 0 0 1 2 2v5.26c0 .912-.621 1.702-1.505 1.93a6.003 6.003 0 0 0 0 11.62A1.996 1.996 0 0 1 60 22.74V28a2 2 0 0 1-2 2H2a2 2 0 0 1-2-2v-5.26c0-.913.62-1.702 1.505-1.93a6.003 6.003 0 0 0 0-11.62A1.996 1.996 0 0 1 0 7.26V2a2 2 0 0 1 2-2z" fill="#ffc000"/></g></svg>