<svg xmlns="http://www.w3.org/2000/svg" width="60" height="30" viewBox="0 0 60 30"><g transform="translate(-640 -488)" fill="transparent" stroke-linejoin="round"><path d="M 697.9998168945312 517.4998779296875 L 641.9998779296875 517.4998779296875 C 641.1727905273438 517.4998779296875 640.4998779296875 516.8269653320312 640.4998779296875 515.9998168945312 L 640.4998779296875 510.7394104003906 C 640.4998779296875 510.0599670410156 640.9644165039062 509.4654846191406 641.6295776367188 509.2937316894531 C 644.4971313476562 508.5530700683594 646.4998779296875 505.9649658203125 646.4998779296875 502.9999084472656 C 646.4998779296875 500.0346374511719 644.4971313476562 497.4464111328125 641.6295776367188 496.7058715820312 C 640.9644165039062 496.5342102050781 640.4998779296875 495.9396057128906 640.4998779296875 495.2598876953125 L 640.4998779296875 489.9996948242188 C 640.4998779296875 489.1725463867188 641.1727905273438 488.4996032714844 641.9998779296875 488.4996032714844 L 697.9998168945312 488.4996032714844 C 698.8269653320312 488.4996032714844 699.4998779296875 489.1725463867188 699.4998779296875 489.9996948242188 L 699.4998779296875 495.2598876953125 C 699.4998779296875 495.9396057128906 699.0353393554688 496.5342102050781 698.3701782226562 496.7058715820312 C 695.5025634765625 497.4464416503906 693.4998779296875 500.0346374511719 693.4998779296875 502.9999084472656 C 693.4998779296875 505.9649658203125 695.5025634765625 508.5530700683594 698.3700561523438 509.293701171875 C 699.0352783203125 509.4654846191406 699.4998779296875 510.0599670410156 699.4998779296875 510.7394104003906 L 699.4998779296875 515.9998168945312 C 699.4998779296875 516.8269653320312 698.8269653320312 517.4998779296875 697.9998168945312 517.4998779296875 Z" stroke="none"/><path d="M 641.9998779296875 488.9996337890625 C 641.448486328125 488.9996337890625 640.9998779296875 489.4482421875 640.9998779296875 489.9996948242188 L 640.9998779296875 495.2598876953125 C 640.9998779296875 495.7115478515625 641.3101806640625 496.1070556640625 641.754638671875 496.2217712402344 C 644.8429565429688 497.0193176269531 646.9998779296875 499.8066101074219 646.9998779296875 502.9999084472656 C 646.9998779296875 506.1929931640625 644.8429565429688 508.9801635742188 641.7545776367188 509.77783203125 C 641.3102416992188 509.892578125 640.9998779296875 510.2879943847656 640.9998779296875 510.7394104003906 L 640.9998779296875 515.9998168945312 C 640.9998779296875 516.55126953125 641.448486328125 516.9998779296875 641.9998779296875 516.9998779296875 L 697.9998168945312 516.9998779296875 C 698.55126953125 516.9998779296875 698.9998779296875 516.55126953125 698.9998779296875 515.9998168945312 L 698.9998779296875 510.7394104003906 C 698.9998779296875 510.2879943847656 698.6895141601562 509.8926086425781 698.2450561523438 509.7778015136719 C 695.15673828125 508.9801635742188 692.9998779296875 506.1929626464844 692.9998779296875 502.9999084472656 C 692.9998779296875 499.8066101074219 695.1567993164062 497.0193481445312 698.2452392578125 496.2217407226562 C 698.6895751953125 496.1070556640625 698.9998779296875 495.7115478515625 698.9998779296875 495.2598876953125 L 698.9998779296875 489.9996948242188 C 698.9998779296875 489.4482421875 698.55126953125 488.9996337890625 697.9998168945312 488.9996337890625 L 641.9998779296875 488.9996337890625 M 641.9998779296875 487.9996337890625 L 697.9998168945312 487.9996337890625 C 699.1043701171875 487.9996337890625 699.9998779296875 488.8951416015625 699.9998779296875 489.9996948242188 L 699.9998779296875 495.2598876953125 C 699.9998779296875 496.1726989746094 699.37890625 496.9619140625 698.4951171875 497.1900024414062 C 695.9097290039062 497.8576965332031 693.9998779296875 500.2059020996094 693.9998779296875 502.9999084472656 C 693.9998779296875 505.7936096191406 695.9097290039062 508.1418151855469 698.4951171875 508.8096008300781 C 699.37890625 509.0378112792969 699.9998779296875 509.8268127441406 699.9998779296875 510.7394104003906 L 699.9998779296875 515.9998168945312 C 699.9998779296875 517.1043701171875 699.1043701171875 517.9998779296875 697.9998168945312 517.9998779296875 L 641.9998779296875 517.9998779296875 C 640.8953247070312 517.9998779296875 639.9998779296875 517.1043701171875 639.9998779296875 515.9998168945312 L 639.9998779296875 510.7394104003906 C 639.9998779296875 509.8268127441406 640.6207885742188 509.0378112792969 641.5045776367188 508.8096008300781 C 644.0900268554688 508.1418151855469 645.9998779296875 505.7936096191406 645.9998779296875 502.9999084472656 C 645.9998779296875 500.2059020996094 644.0900268554688 497.8576965332031 641.5045776367188 497.1900024414062 C 640.6207885742188 496.9619140625 639.9998779296875 496.1726989746094 639.9998779296875 495.2598876953125 L 639.9998779296875 489.9996948242188 C 639.9998779296875 488.8951416015625 640.8953247070312 487.9996337890625 641.9998779296875 487.9996337890625 Z" stroke="none" fill="#dcdcdc"/></g></svg>