<svg xmlns="http://www.w3.org/2000/svg" width="60" height="30" viewBox="0 0 60 30"><g transform="translate(-360 -576)" fill="transparent" stroke-linejoin="round"><path d="M 417.9997863769531 605.4996948242188 L 361.9999084472656 605.4996948242188 C 361.1728210449219 605.4996948242188 360.4999084472656 604.8268432617188 360.4999084472656 603.9998168945312 L 360.4999084472656 598.739501953125 C 360.4999084472656 598.0599975585938 360.9645080566406 597.4653930664062 361.6296997070312 597.29345703125 C 364.4971923828125 596.5528564453125 366.4999084472656 593.96484375 366.4999084472656 590.9998779296875 C 366.4999084472656 588.0347290039062 364.4971923828125 585.446533203125 361.629638671875 584.7058715820312 C 360.9644775390625 584.5339965820312 360.4999084472656 583.9393920898438 360.4999084472656 583.2598876953125 L 360.4999084472656 577.9995727539062 C 360.4999084472656 577.1725463867188 361.1728210449219 576.4996948242188 361.9999084472656 576.4996948242188 L 417.9997863769531 576.4996948242188 C 418.8269958496094 576.4996948242188 419.5 577.1725463867188 419.5 577.9995727539062 L 419.5 583.2598876953125 C 419.5 583.9393920898438 419.0353393554688 584.5339965820312 418.3700256347656 584.7058715820312 C 415.5025939941406 585.446533203125 413.4999084472656 588.0347290039062 413.4999084472656 590.9998779296875 C 413.4999084472656 593.96484375 415.5025939941406 596.5528564453125 418.3700561523438 597.2935180664062 C 419.0353393554688 597.4653930664062 419.5 598.0599975585938 419.5 598.739501953125 L 419.5 603.9998168945312 C 419.5 604.8268432617188 418.8269958496094 605.4996948242188 417.9997863769531 605.4996948242188 Z" stroke="none"/><path d="M 361.9999084472656 576.9996948242188 C 361.4485168457031 576.9996948242188 360.9999084472656 577.4482421875 360.9999084472656 577.9995727539062 L 360.9999084472656 583.2598876953125 C 360.9999084472656 583.71142578125 361.3103332519531 584.1069946289062 361.7546997070312 584.2218017578125 C 364.8429870605469 585.0194702148438 366.9999084472656 587.8067016601562 366.9999084472656 590.9998779296875 C 366.9999084472656 594.1928100585938 364.8429870605469 596.9799194335938 361.7547607421875 597.777587890625 C 361.3103332519531 597.8923950195312 360.9999084472656 598.2879638671875 360.9999084472656 598.739501953125 L 360.9999084472656 603.9998168945312 C 360.9999084472656 604.5511474609375 361.4485168457031 604.9996948242188 361.9999084472656 604.9996948242188 L 417.9997863769531 604.9996948242188 C 418.5513000488281 604.9996948242188 419 604.5511474609375 419 603.9998168945312 L 419 598.739501953125 C 419 598.2880249023438 418.6895141601562 597.8924560546875 418.2449951171875 597.777587890625 C 415.1567687988281 596.9799194335938 412.9999084472656 594.19287109375 412.9999084472656 590.9998779296875 C 412.9999084472656 587.8067016601562 415.1567687988281 585.0194702148438 418.2449340820312 584.2218017578125 C 418.6895141601562 584.10693359375 419 583.7113647460938 419 583.2598876953125 L 419 577.9995727539062 C 419 577.4482421875 418.5513000488281 576.9996948242188 417.9997863769531 576.9996948242188 L 361.9999084472656 576.9996948242188 M 361.9999084472656 575.9996948242188 L 417.9997863769531 575.9996948242188 C 419.1044006347656 575.9996948242188 420 576.8952026367188 420 577.9995727539062 L 420 583.2598876953125 C 420 584.1724853515625 419.37890625 584.961669921875 418.4950866699219 585.1900024414062 C 415.9096984863281 585.8577880859375 413.9999084472656 588.2056884765625 413.9999084472656 590.9998779296875 C 413.9999084472656 593.793701171875 415.9096984863281 596.1416015625 418.4950866699219 596.8093872070312 C 419.37890625 597.0377197265625 420 597.826904296875 420 598.739501953125 L 420 603.9998168945312 C 420 605.1043090820312 419.1044006347656 605.9996948242188 417.9997863769531 605.9996948242188 L 361.9999084472656 605.9996948242188 C 360.8952941894531 605.9996948242188 359.9999084472656 605.1043090820312 359.9999084472656 603.9998168945312 L 359.9999084472656 598.739501953125 C 359.9999084472656 597.826904296875 360.6209106445312 597.0377197265625 361.5046081542969 596.8093872070312 C 364.0899963378906 596.1416015625 365.9999084472656 593.793701171875 365.9999084472656 590.9998779296875 C 365.9999084472656 588.2056884765625 364.0899963378906 585.8577880859375 361.5046081542969 585.1900024414062 C 360.6209106445312 584.961669921875 359.9999084472656 584.1724853515625 359.9999084472656 583.2598876953125 L 359.9999084472656 577.9995727539062 C 359.9999084472656 576.8952026367188 360.8952941894531 575.9996948242188 361.9999084472656 575.9996948242188 Z" stroke="none" fill="#ffc000"/></g></svg>