<svg xmlns="http://www.w3.org/2000/svg" viewBox="0 0 119.998 31.998"><defs><style>.a{fill:#6400aa;}</style></defs><path class="a" d="M171.735,70c-.078,0-.229-.005-.229-.005a10.827,10.827,0,0,1-6.972-2.959.649.649,0,0,1-.021-.938L166.628,64a.652.652,0,0,1,.914,0,6.3,6.3,0,0,0,2,1.3,6.425,6.425,0,0,0,2.2.47,6.182,6.182,0,0,0,6.006-5.488.63.63,0,0,1,.634-.558h3.1a.643.643,0,0,1,.641.691,10.561,10.561,0,0,1-10.151,9.574s-.124.006-.206.006Zm40.756-10.543a.638.638,0,0,1-.641-.635V38.734a.637.637,0,0,1,.641-.634h3.115a.638.638,0,0,1,.642.634v.787a.326.326,0,0,0,.5.275,10.226,10.226,0,0,1,5.159-1.678.644.644,0,0,1,.688.635v3.115a.632.632,0,0,1-.575.628c-3.23.3-5.771,1.9-5.771,5.137V58.819a.638.638,0,0,1-.642.635ZM160.762,48.727A10.716,10.716,0,0,1,171.506,38.1a10.573,10.573,0,0,1,5.509,1.553.649.649,0,0,0,.634.023,9.921,9.921,0,0,1,3.788-1.07.645.645,0,0,1,.7.635v3.208a.633.633,0,0,1-.574.627l-.015,0a.633.633,0,0,0-.5.92,10.363,10.363,0,0,1,1.153,4.729,10.719,10.719,0,0,1-21.438,0Zm4.4,0a5.994,5.994,0,0,0,1.9,4.421,6.067,6.067,0,0,0,4.448,1.886,6.357,6.357,0,0,0,6.3-6.307,6.283,6.283,0,0,0-6.3-6.257A6.358,6.358,0,0,0,165.16,48.727Zm61.351-.1V38.635a.638.638,0,0,1,.641-.635h3.115a.638.638,0,0,1,.642.635v9.993a5.992,5.992,0,0,0,1.9,4.42,6.063,6.063,0,0,0,4.448,1.887,6.368,6.368,0,0,0,6.346-6.307V38.635a.638.638,0,0,1,.642-.635h3.115a.638.638,0,0,1,.641.635v9.993a10.744,10.744,0,0,1-21.488,0Zm-40.444,0V38.635a.638.638,0,0,1,.642-.635h3.115a.638.638,0,0,1,.641.635v9.993a5.992,5.992,0,0,0,1.9,4.42,6.065,6.065,0,0,0,4.448,1.887,6.367,6.367,0,0,0,6.346-6.307V38.635A.638.638,0,0,1,203.8,38h3.115a.638.638,0,0,1,.642.635v9.993a10.744,10.744,0,0,1-21.488,0ZM153.4,58.994a.634.634,0,0,1-.637-.631V55.507a.634.634,0,0,0-.637-.631h-7.522a.634.634,0,0,1-.637-.631v-2.71a.628.628,0,0,1,.108-.351l8.43-12.475a.639.639,0,0,1,.529-.28h2.846a.635.635,0,0,1,.638.631V50.712a.634.634,0,0,0,.637.631h.52a.634.634,0,0,1,.637.631v2.271a.634.634,0,0,1-.637.631h-.52a.634.634,0,0,0-.637.631v2.857a.635.635,0,0,1-.638.631Zm-1.8-12.673-2.765,4.037a.63.63,0,0,0,.527.985h2.765a.634.634,0,0,0,.637-.631V46.676a.631.631,0,0,0-.644-.632A.62.62,0,0,0,151.6,46.321ZM128.638,58.994a.634.634,0,0,1-.637-.631v-.94a.626.626,0,0,1,.181-.44l6.053-6.143a18.166,18.166,0,0,0,3.008-3.662,5.369,5.369,0,0,0,.746-2.5,2.566,2.566,0,0,0-.774-1.916,3.019,3.019,0,0,0-2.767-.689.766.766,0,0,0-.189.058,3.259,3.259,0,0,0-1.925,2.724.632.632,0,0,1-.628.545h-2.467a.64.64,0,0,1-.634-.716A7.027,7.027,0,0,1,130.6,40.29a7.265,7.265,0,0,1,8.112-1.091,6.147,6.147,0,0,1,3.09,5.175,8.713,8.713,0,0,1-1.021,3.846,20.973,20.973,0,0,1-3.736,4.869L135.794,54.4a.63.63,0,0,0,.464,1.064h5.068a.634.634,0,0,1,.637.631v2.271a.634.634,0,0,1-.637.631Z" transform="translate(-128.001 -38)"/></svg>