<svg xmlns="http://www.w3.org/2000/svg" width="12.015" height="11.987" viewBox="0 0 12.015 11.987"><path d="M194.612,370.98h-9.243a1.386,1.386,0,0,1-1.386-1.383v-9.22a1.386,1.386,0,0,1,1.386-1.383h9.243A1.386,1.386,0,0,1,196,360.376v9.22A1.386,1.386,0,0,1,194.612,370.98Zm-9.243-6.917h0v5.073a.462.462,0,0,0,.463.461h8.319a.462.462,0,0,0,.462-.461v-5.073h-1.045a3.736,3.736,0,0,1,.121.924,3.7,3.7,0,0,1-7.393,0,3.736,3.736,0,0,1,.121-.924h-1.047Zm4.621-1.382a2.31,2.31,0,1,0,2.31,2.309A2.312,2.312,0,0,0,189.99,362.68Zm2.774-2.3a.462.462,0,0,0-.462.461v1.382a.463.463,0,0,0,.462.463h1.387a.463.463,0,0,0,.462-.463v-1.382a.462.462,0,0,0-.462-.461Z" transform="translate(-183.983 -358.993)" fill="#fff"/></svg>