<svg xmlns="http://www.w3.org/2000/svg" width="13.009" height="7.998" viewBox="0 0 13.009 7.998"><path d="M123.013,365.849c.1.122.2.24.312.351a10.59,10.59,0,0,1,1.428,1.648,2.207,2.207,0,0,1,.212.409.443.443,0,0,1-.252.613,2.1,2.1,0,0,1-.455.1,2.836,2.836,0,0,1-.348.006h-.334V369c-.312,0-.626,0-.939,0a1.392,1.392,0,0,1-1.028-.439c-.311-.321-.6-.675-.9-1.009a2.741,2.741,0,0,0-.291-.283c-.24-.2-.48-.155-.594.142a5.542,5.542,0,0,0-.189.838.5.5,0,0,0,0,.1c0,.385-.175.6-.534.622a4.7,4.7,0,0,1-2.7-.543,5.828,5.828,0,0,1-1.788-1.669,21.033,21.033,0,0,1-2.068-3.663c-.16-.347-.309-.7-.465-1.052l-.03-.073c-.135-.353-.023-.554.331-.589.091-.009.183,0,.274,0,.49-.007.98-.012,1.47-.02a.682.682,0,0,1,.714.5,11.211,11.211,0,0,0,1.34,2.561,2.039,2.039,0,0,0,.359.389c.175.143.328.093.4-.131a2.28,2.28,0,0,0,.1-.5,7.479,7.479,0,0,0-.035-1.883.675.675,0,0,0-.571-.6c-.185-.04-.206-.116-.082-.27a.938.938,0,0,1,.634-.337,6.979,6.979,0,0,1,1.963-.01c.6.083.679.325.7.927.012.4-.022.8-.026,1.2s-.008.775.009,1.163a.916.916,0,0,0,.112.378c.08.149.2.172.319.063a2.928,2.928,0,0,0,.423-.456,10.5,10.5,0,0,0,1.316-2.519c.137-.373.234-.44.613-.442.662,0,1.324-.006,1.985,0a1.207,1.207,0,0,1,.359.046.317.317,0,0,1,.218.428,4.563,4.563,0,0,1-.4.933c-.438.7-.916,1.368-1.376,2.051-.091.135-.175.276-.254.421A.5.5,0,0,0,123.013,365.849Z" transform="translate(-112.001 -361.004)" fill="#fff"/></svg>