<?xml version="1.0" encoding="utf-8"?>
<!-- Generator: Adobe Illustrator 21.0.2, SVG Export Plug-In . SVG Version: 6.00 Build 0)  -->
<svg version="1.1" id="Слой_1" xmlns="http://www.w3.org/2000/svg" xmlns:xlink="http://www.w3.org/1999/xlink" x="0px" y="0px"
	 viewBox="0 0 120 40" style="enable-background:new 0 0 120 40;" xml:space="preserve">
<style type="text/css">
	.st0{fill:#6400AA;}
</style>
<g>
	<g>
		<path class="st0" d="M91.928,5.611c-1.789,0.097-3.349,0.604-4.858,1.573c-0.202,0.13-0.471-0.02-0.471-0.258V6.188
			c0-0.329-0.27-0.595-0.604-0.595h-2.933c-0.333,0-0.604,0.266-0.604,0.595v18.83c0,0.329,0.27,0.595,0.604,0.595h2.933
			c0.333,0,0.604-0.266,0.604-0.595V14.531c0-3.034,2.393-4.54,5.434-4.816c0.308-0.028,0.542-0.284,0.542-0.589V6.206
			C92.576,5.861,92.278,5.591,91.928,5.611z M77.81,5.5h-2.933c-0.333,0-0.604,0.266-0.604,0.595v9.369
			c0,3.213-2.682,5.913-5.976,5.913c-1.553,0-3.106-0.605-4.188-1.769c-1.177-1.071-1.788-2.607-1.788-4.144V6.095
			c0-0.329-0.27-0.595-0.604-0.595h-2.933c-0.333,0-0.604,0.266-0.604,0.595v9.369c0,5.494,4.517,10.01,10.117,10.01
			c5.553,0,10.117-4.47,10.117-10.01V6.095C78.414,5.767,78.144,5.5,77.81,5.5z M115.895,5.5h-2.933
			c-0.334,0-0.604,0.266-0.604,0.595v9.369c0,3.213-2.682,5.913-5.976,5.913c-1.553,0-3.106-0.605-4.188-1.769
			c-1.176-1.071-1.788-2.607-1.788-4.144V6.095c0-0.329-0.27-0.595-0.604-0.595h-2.933c-0.333,0-0.604,0.266-0.604,0.595v9.369
			c0,5.494,4.518,10.01,10.117,10.01c5.553,0,10.117-4.47,10.117-10.01V6.095C116.499,5.767,116.229,5.5,115.895,5.5z M53.923,10.26
			c0.005-0.001,0.01-0.001,0.014-0.002c0.307-0.032,0.541-0.284,0.541-0.589V6.663c0-0.35-0.305-0.621-0.659-0.595
			c-1.264,0.092-2.469,0.445-3.568,1.003c-0.19,0.097-0.414,0.089-0.597-0.022c-1.516-0.918-3.29-1.456-5.187-1.456
			c-5.506,0-10.117,4.423-10.117,9.964c0,5.494,4.518,10.01,10.117,10.01c5.506,0,10.07-4.516,10.07-10.01
			c0-1.583-0.395-3.09-1.086-4.434C53.261,10.751,53.503,10.305,53.923,10.26z M44.468,21.47c-1.553,0-3.106-0.605-4.188-1.769
			c-1.176-1.071-1.788-2.607-1.788-4.144c0-3.212,2.729-5.866,5.976-5.866s5.929,2.607,5.929,5.866
			C50.397,18.723,47.762,21.47,44.468,21.47z M16.048,21.87h-4.773c-0.526,0-0.798-0.62-0.437-0.997l1.175-1.227
			c1.704-1.756,2.876-3.277,3.518-4.564c0.641-1.287,0.962-2.489,0.962-3.605c0-0.937-0.264-1.86-0.794-2.768
			c-0.529-0.908-1.234-1.602-2.116-2.084c-0.882-0.481-1.899-0.722-3.051-0.722c-1.867,0-3.396,0.582-4.587,1.745
			c-1.057,1.032-1.682,2.404-1.876,4.116c-0.04,0.356,0.234,0.672,0.597,0.672H6.99c0.299,0,0.552-0.219,0.591-0.511
			C7.745,10.699,8.35,9.848,9.394,9.37c0.055-0.025,0.118-0.044,0.178-0.054c1.105-0.185,1.973,0.03,2.605,0.646
			c0.486,0.473,0.729,1.072,0.729,1.796c0,0.699-0.234,1.481-0.703,2.346c-0.469,0.865-1.413,2.009-2.832,3.433l-5.7,5.76
			c-0.109,0.11-0.17,0.258-0.17,0.413v0.881c0,0.327,0.269,0.591,0.6,0.591h11.947c0.331,0,0.6-0.265,0.6-0.591v-2.128
			C16.648,22.135,16.379,21.87,16.048,21.87z M31.447,18.009h-0.49c-0.331,0-0.6-0.265-0.6-0.591V6.494
			c0-0.327-0.269-0.591-0.6-0.591h-2.68c-0.2,0-0.387,0.099-0.499,0.263L18.639,17.86c-0.066,0.097-0.101,0.212-0.101,0.329v2.54
			c0,0.327,0.269,0.591,0.6,0.591h7.083c0.331,0,0.6,0.265,0.6,0.591v2.678c0,0.327,0.269,0.591,0.6,0.591h2.335
			c0.332,0,0.6-0.265,0.6-0.591v-2.678c0-0.327,0.269-0.591,0.6-0.591h0.49c0.331,0,0.6-0.265,0.6-0.591v-2.128
			C32.047,18.274,31.778,18.009,31.447,18.009z M26.821,17.418c0,0.327-0.269,0.591-0.6,0.591h-2.603
			c-0.482,0-0.767-0.531-0.497-0.923l2.603-3.785c0.332-0.482,1.097-0.251,1.097,0.332V17.418z M53.861,25.869H50.94
			c-0.305,0-0.568,0.224-0.597,0.524c-0.268,2.8-2.666,5.039-5.655,5.145c-0.734-0.026-1.432-0.18-2.072-0.44
			c-0.709-0.288-1.345-0.704-1.88-1.219c-0.242-0.233-0.623-0.236-0.862,0c-0.704,0.694-1.991,1.961-1.991,1.961
			c-0.249,0.245-0.235,0.64,0.019,0.88c0.558,0.527,1.179,0.992,1.849,1.384c1.398,0.818,3.01,1.316,4.717,1.39
			c0,0,0.142,0.007,0.215,0.005c0.073,0.002,0.222-0.005,0.222-0.005c5.016-0.216,9.214-4.101,9.559-8.976
			C54.489,26.168,54.215,25.869,53.861,25.869z"/>
	</g>
</g>
<g>
</g>
<g>
</g>
<g>
</g>
<g>
</g>
<g>
</g>
<g>
</g>
<g>
</g>
<g>
</g>
<g>
</g>
<g>
</g>
<g>
</g>
<g>
</g>
<g>
</g>
<g>
</g>
<g>
</g>
</svg>
